<?xml version="1.0" encoding="UTF-8"?>
<svg xmlns="http://www.w3.org/2000/svg" viewBox="0 0 100 100">
  <defs>
    <linearGradient id="g" x1="0" y1="0" x2="100" y2="100" gradientUnits="userSpaceOnUse">
      <stop offset="0%" stop-color="#14b8a6"/>
      <stop offset="100%" stop-color="#0f766e"/>
    </linearGradient>
  </defs>
  <rect width="100" height="100" rx="22" fill="url(#g)"/>
  <!-- header strip (days) -->
  <rect x="12" y="13" width="76" height="13" rx="3.5" fill="rgba(255,255,255,0.4)"/>
  <!-- row 1: filled · empty · filled -->
  <rect x="12" y="31" width="22" height="13" rx="3" fill="rgba(255,255,255,0.85)"/>
  <rect x="39" y="31" width="22" height="13" rx="3" fill="rgba(255,255,255,0.2)"/>
  <rect x="66" y="31" width="22" height="13" rx="3" fill="rgba(255,255,255,0.85)"/>
  <!-- row 2: empty · filled · filled -->
  <rect x="12" y="49" width="22" height="13" rx="3" fill="rgba(255,255,255,0.2)"/>
  <rect x="39" y="49" width="22" height="13" rx="3" fill="rgba(255,255,255,0.85)"/>
  <rect x="66" y="49" width="22" height="13" rx="3" fill="rgba(255,255,255,0.85)"/>
  <!-- row 3: filled · filled · empty -->
  <rect x="12" y="67" width="22" height="13" rx="3" fill="rgba(255,255,255,0.85)"/>
  <rect x="39" y="67" width="22" height="13" rx="3" fill="rgba(255,255,255,0.85)"/>
  <rect x="66" y="67" width="22" height="13" rx="3" fill="rgba(255,255,255,0.2)"/>
  <!-- row 4: hint -->
  <rect x="12" y="85" width="22" height="5" rx="2" fill="rgba(255,255,255,0.15)"/>
  <rect x="39" y="85" width="22" height="5" rx="2" fill="rgba(255,255,255,0.15)"/>
  <rect x="66" y="85" width="22" height="5" rx="2" fill="rgba(255,255,255,0.15)"/>
</svg>
